<svg xmlns="http://www.w3.org/2000/svg" xmlns:xlink="http://www.w3.org/1999/xlink" width="630.66" height="672.23" viewBox="0 0 630.66 672.23"><defs><style>.cls-1,.cls-10,.cls-25,.cls-26,.cls-7{fill:none;}.cls-2{fill:url(#linear-gradient);}.cls-3{fill:#f0f0f0;}.cls-4{fill:url(#linear-gradient-2);}.cls-5{fill:red;}.cls-6{fill:#1ac42f;}.cls-10,.cls-25,.cls-26,.cls-7{stroke:#000;}.cls-10,.cls-21,.cls-25,.cls-26,.cls-7{stroke-miterlimit:10;}.cls-7{stroke-width:2px;}.cls-8{fill:#4c4845;}.cls-9{fill:#333;}.cls-10{stroke-width:3px;}.cls-11{filter:url(#AI_BevelShadow_1);}.cls-12{opacity:0.18;}.cls-13{clip-path:url(#clip-path);}.cls-14{clip-path:url(#clip-path-2);}.cls-15{fill:#754c24;}.cls-16{fill:#a57c52;}.cls-17{mask:url(#mask);}.cls-18{opacity:0.77;}.cls-19{fill:#513514;}.cls-20{mask:url(#mask-2);}.cls-21{fill:url(#radial-gradient);stroke:url(#radial-gradient-2);}.cls-22,.cls-29{fill:#fff;}.cls-23{fill:#c59b6d;}.cls-24{fill:url(#radial-gradient-3);}.cls-26{stroke-width:0.5px;}.cls-27{fill:#ffcfb2;}.cls-28{fill:#1a1a1a;}.cls-29{fill-opacity:0.67;opacity:0.43;}.cls-30{filter:url(#luminosity-invert);}</style><linearGradient id="linear-gradient" x1="474.69" y1="267.87" x2="630.66" y2="267.87" gradientUnits="userSpaceOnUse"><stop offset="0" stop-color="#4d4d4d"/><stop offset="1"/></linearGradient><linearGradient id="linear-gradient-2" x1="0" y1="280.95" x2="137.82" y2="280.95" xlink:href="#linear-gradient"/><filter id="AI_BevelShadow_1" x="-20%" y="-20%" width="140%" height="140%" name="AI_BevelShadow_1"><feGaussianBlur result="blur" stdDeviation="4" in="SourceAlpha"/><feOffset result="offsetBlur" dx="4" dy="4" in="blur"/><feSpecularLighting result="specOut" specularExponent="10" surfaceScale="5" in="blur"><fePointLight x="-5000" y="-10000" z="-20000"/></feSpecularLighting><feComposite result="specOut" operator="in" in="specOut" in2="SourceAlpha"/><feComposite result="litPaint" k2="1" k3="1" operator="arithmetic" in="SourceGraphic" in2="specOut"/><feMerge><feMergeNode in="offsetBlur"/><feMergeNode in="litPaint"/></feMerge></filter><clipPath id="clip-path"><ellipse class="cls-1" cx="286.54" cy="149.91" rx="174.22" ry="144.91"/></clipPath><clipPath id="clip-path-2"><rect class="cls-1" x="107.32" width="358.45" height="299.82"/></clipPath><filter id="luminosity-invert" filterUnits="userSpaceOnUse" color-interpolation-filters="sRGB"><feColorMatrix values="-1 0 0 0 1 0 -1 0 0 1 0 0 -1 0 1 0 0 0 1 0"/></filter><mask id="mask" x="357.47" y="91.73" width="51" height="58" maskUnits="userSpaceOnUse"><g class="cls-30"><image width="51" height="58" transform="translate(357.47 91.73)" xlink:href="Artboard%201612.png"/></g></mask><mask id="mask-2" x="165.47" y="96.73" width="51" height="58" maskUnits="userSpaceOnUse"><g class="cls-30"><image width="51" height="58" transform="translate(165.47 96.73)" xlink:href="Artboard%201613.png"/></g></mask><radialGradient id="radial-gradient" cx="638.27" cy="254.48" r="89.92" gradientTransform="translate(-504.3 -123.37) scale(1.25 1.23)" gradientUnits="userSpaceOnUse"><stop offset="0" stop-color="#a57c52"/><stop offset="0.27" stop-color="#a0774d"/><stop offset="0.59" stop-color="#926940"/><stop offset="0.93" stop-color="#7b522a"/><stop offset="1" stop-color="#754c24"/></radialGradient><radialGradient id="radial-gradient-2" cx="638.27" cy="254.48" r="90.42" gradientTransform="translate(-504.3 -123.37) scale(1.25 1.23)" gradientUnits="userSpaceOnUse"><stop offset="0" stop-color="#a57c52"/><stop offset="0.27" stop-color="#a0774d"/><stop offset="0.59" stop-color="#926940"/><stop offset="0.93" stop-color="#7b5229"/><stop offset="1" stop-color="#754c24"/></radialGradient><radialGradient id="radial-gradient-3" cx="1007.16" cy="284.51" r="8.34" gradientTransform="translate(-1350.55 -231.74) scale(1.63 1.56)" gradientUnits="userSpaceOnUse"><stop offset="0" stop-color="#333"/><stop offset="1"/></radialGradient></defs><g id="skyger"><g id="h_hånd" data-name="h hånd"><path class="cls-2" d="M534.34,339a19.24,19.24,0,0,1-7.22-2.73c-24.49-13.61-43.4-36.17-51.93-61.94-.42-1.28-.81-2.73-.15-3.92a5.31,5.31,0,0,1,2.2-1.84q3.08-1.71,6.24-3.26l-.19.32c10.52-6.75,7.95-15.33,7.53-26.09-.53-13.85,2.23-38.5,20.8-39.36a29.2,29.2,0,0,1,21.91,9.19c5.7,6.36,5.53,14.75,4.9,22.71,8-18.37,23.94-33.1,44.85-35.05,18.06-1.69,35.78,8.16,43.19,24.5s4.28,35.57-4.05,51c-8.59,15.94-22.53,28.56-37.72,38.38-15.76,10.19-34.22,16.28-49,27.94"/></g><path id="krop" class="cls-3" d="M539.92,341.23c-.74-.43-1.48-.9-2.23-1.43-9.27-6.56-18.14-14.82-26.59-22.37-10-9-20.32-18.18-29.59-27.89a58.35,58.35,0,0,1-13-20.5,162.79,162.79,0,0,0-36.2,9.46c-3.94,1.52-7.87,3.2-11.71,5-4.09-.29-8.2-.44-12.27-.44a160.71,160.71,0,0,0-41.29,5.23c-17.14-5-38.85-7.68-61.64-7.68-21.74,0-41.92,2.36-58.68,6.85-15.26-6.09-32.9-9.29-51.31-9.29a146.87,146.87,0,0,0-34.56,4c-3.81-.81-7.59-1.4-11.33-1.82l-3.38,2.08a7,7,0,0,1-5.79,3.85c-1.63,1.21-3.16,2.51-4.73,3.75-4.61,10.54-11.33,20.42-17.93,29.27a270.58,270.58,0,0,1-32.67,35.94,22.29,22.29,0,0,1,2,3.33c10.83,17.84,30.64,33.58,55.05,43.61a141.6,141.6,0,0,0,17.17,5.8,141.53,141.53,0,0,0,1.36,58.53c9.82,42.38,37.14,76.15,72,89.6l13.77,38.64c-11.21,17-13.39,35.58-5.67,50.89s23.65,24.1,43.7,24.1c13.49,0,29.78-2,42.11-11.55,25-19.27,25-30.82,32.71-53.93,2-12.73,4.32-32.39,0-48.79,11.46,9.75,32.53,15.59,47.36,15.59,20.92,0,40.37-11,53.26-29.74h0c25.49,0,46.23-12.92,54.13-33.71,11.51-30.29-8-65.75-44.46-80.71-1.61-.66-3.24-1.28-4.88-1.84a108.72,108.72,0,0,0,2.52-23.38c0-2.08-.06-4.17-.18-6.25q3.12-1.08,6.2-2.26C504.53,381.12,528.67,362.15,539.92,341.23Z"/><path class="cls-4" d="M131.44,256.13c-.4,5.69-1.93,12-.21,17.58,1,3.38,4.32,5.25,5.66,8.4s.94,7.57.51,10.95c-1.05,8.08-4.62,15.69-8.42,22.83a83.28,83.28,0,0,1-9.32,14.62c-6.37,7.61-14.88,13.14-23.26,18.55-10.64,6.88-13.9.38-22.34-5.2-3.71-2.46-7.55-4.72-11.38-7-7.41-4.34-14.91-8.54-21.82-13.67-13.93-10.35-26.6-23.44-34.13-39.59C-.58,268-2.89,248.82,4.64,232.83A39.86,39.86,0,0,1,46,210.25c19.58,2.77,34.05,18,41,36.57-.33-7.92-.21-16.25,5.36-22.33a26.52,26.52,0,0,1,20.89-8.25C130.64,217.84,132.41,242.41,131.44,256.13Z"/><path d="M120.61,330.3A98,98,0,0,0,129,318.67c8.07-12.6,15.82-25.58,20.2-39.68.07-.35.12-.71.17-1.06l-.78-.51h0c.06-.12-.06-.24-.17-.32a13,13,0,0,0-12.32-1.42l-.74.2a141.16,141.16,0,0,1-36.13,63c-5.85,5.93-12.33,12.72-22,10.84l-.05.5c0,2.75,3.14,3.9,4.64,5.66l.09.33c13.36.87,18-5.07,25.88-11.47C112,341.22,117,334.4,120.61,330.3Z"/><ellipse class="cls-5" cx="254.7" cy="382.92" rx="11.83" ry="11.48"/><ellipse class="cls-6" cx="360.44" cy="366.71" rx="9.04" ry="8.78"/><polygon points="286.67 295.8 292.43 347.13 319.32 347.13 316.75 294.43 286.67 295.8"/><path d="M294.68,430.46c3.21,26.16,7.14,50.53,11,76.31,16.47,1.17,23.56,1.94,40.4-4.63-19.1-22.95-13.29-44.36-12.8-71.82C320.39,430.64,307.54,430.84,294.68,430.46Z"/><rect class="cls-7" x="224.79" y="347.13" width="165.57" height="82.4" rx="12"/><rect class="cls-8" x="276.96" y="386.98" width="75.13" height="37.82" rx="4"/><path class="cls-9" d="M363.14,580.57c-1.1-7.84-12.39-8.78-20.06-4.92s-11.19,12.2-12,20.07.42,15.83-.61,23.68c-.9-8.91-9.55-16-19.13-18.51s-23.09-2.48-28.74-2.48c-12.4,0-35.32,4.07-43.81,12.34s-2.21,28,3,38.22c3.8,7.39,12.87,16.95,21.23,20.08,15.67,5.87,35.53,2.83,51.33-2.75s29.69-17.66,36.75-31.54c3.84-7.56,6.47-18,8.48-26.07,2.47-10,4.24-12.34,3.41-28.13"/><path class="cls-9" d="M469.43,533.64c-8.14-9.62-4.3-23.91,1.87-34.52,3.48-6,7.72-11.83,13.72-16.16s14-7,21.76-6c-8,1.22-16.27-2.31-21.77-7.44s-8.76-11.68-11.76-18.14c-4-8.64-7.84-17.59-7.92-26.89,12.24-1.39,23.37,5.86,32.06,13.32,10.57,9.08,20.09,19.31,25.87,31.1s7.58,25.33,2.79,37.44c-5.18,13.09-17.62,23.45-31.88,30.07-4.89,2.26-10.33,4.19-15.85,3.6s-10.73-6.82-10.41-11.54"/><path d="M349.15,532.36a114.29,114.29,0,0,1,10.65,24.83,1.5,1.5,0,0,0,2.89-.8,117.24,117.24,0,0,0-10.95-25.55,1.5,1.5,0,0,0-2.59,1.52Z"/><path d="M224.93,554.36c5.94,1.61,12,3.37,18.24,3.49a25.85,25.85,0,0,0,15.86-5,46.61,46.61,0,0,0,9-9.09c1.17-1.5-.94-3.64-2.12-2.12-3.87,5-8.56,9.87-14.66,12-5,1.73-10.3,1.36-15.41.35-3.42-.68-6.79-1.6-10.15-2.52a1.51,1.51,0,0,0-.8,2.9Z"/><path d="M460.7,543.24c2.05-2.49,1.78-5.74,1.69-8.77-.11-3.57-.35-7.14-.73-10.69a1.54,1.54,0,0,0-1.5-1.5,1.52,1.52,0,0,0-1.5,1.5q.51,4.79.69,9.6c.06,1.48.13,3,.09,4.45a5.3,5.3,0,0,1-.86,3.28c-1.22,1.48.89,3.62,2.12,2.13Z"/><path d="M539.19,347.44c-34.65-12.79-59.3-42.93-70.66-76.21L467,268.4s0,0,0,0c3-1.41,4.63-1.13,7.52-1.41l.69.56c3.18,15.73,13.09,23.48,21.2,32.88,10.18,11.79,23.11,27.86,48.5,36.52l.43.24c-.08,2.27-4.3,8.81-6.17,10.25"/><path class="cls-10" d="M268.65,502.06a147.7,147.7,0,0,0,111.79-14.95"/><g class="cls-11"><g class="cls-12"><g class="cls-13"><g class="cls-14"><g class="cls-14"><image width="748" height="626" transform="translate(106.93 -0.39) scale(0.48)" xlink:href="Artboard%201611.png"/></g></g></g></g></g><ellipse id="øre1" class="cls-15" cx="384.03" cy="117.67" rx="34.29" ry="34.48"/><g id="øre2"><ellipse class="cls-16" cx="382.78" cy="120.32" rx="23.07" ry="26.52"/><g class="cls-17"><g class="cls-18"><ellipse class="cls-19" cx="382.78" cy="120.32" rx="23.07" ry="26.52"/></g></g></g><ellipse id="øre1-2" data-name="øre1" class="cls-15" cx="189.65" cy="122.77" rx="34.29" ry="34.48"/><g id="øre2-2" data-name="øre2"><ellipse class="cls-16" cx="190.9" cy="125.43" rx="23.07" ry="26.52"/><g class="cls-20"><g class="cls-18"><ellipse class="cls-19" cx="190.9" cy="125.43" rx="23.07" ry="26.52"/></g></g></g><path class="cls-21" d="M411.61,189.47c0,26.77-9.06,58.08-28.86,76.3-21.92,20.18-56.32,25.86-91.16,25.86-33.15,0-64.2-6.08-85.93-24.57s-34.1-49.38-34.1-77.59c0-24.44,15.84-51.64,33.69-68.2,23.69-22,48.75-34,86.34-34,36.56,0,54.41,7.87,78.1,28.48C388.77,132.38,411.61,164.17,411.61,189.47Z"/><ellipse id="h_øje" data-name="h øje" cx="325.1" cy="175.09" rx="15.3" ry="15.09"/><ellipse class="cls-22" cx="319.1" cy="179.47" rx="3.89" ry="2.48"/><ellipse class="cls-22" cx="330.63" cy="166.72" rx="5.16" ry="7.01" transform="translate(127.26 476.16) rotate(-83.44)"/><path class="cls-23" d="M340.41,230c0,20.45-21.91,34.74-48.7,37-32,2.75-48.7-6.86-48.7-37,0-20.46,21.8-37,48.7-37S340.41,209.5,340.41,230Z"/><path class="cls-24" d="M299.42,199.17c5.1.07,8.37,5.28,5.9,9.38l-3.67,6.09L298,220.73c-2.47,4.1-8.84,4-11.46-.16l-3.9-6.19-3.89-6.2c-2.63-4.17.46-9.3,5.56-9.22l7.56.1Z"/><path class="cls-25" d="M320.74,223.92c-3.15,21.68-53.57,24.81-61.44,4.66"/><line class="cls-25" x1="291.97" y1="223.55" x2="291.97" y2="242.3"/><path class="cls-26" d="M315.65,222.85c5.2-.52,9.75,2.52,10.19,6.8"/><ellipse id="v_øje" data-name="v øje" cx="250.55" cy="178.92" rx="12.46" ry="12.55" transform="translate(27.34 390.97) rotate(-79.06)"/><ellipse class="cls-22" cx="246.15" cy="182.49" rx="3.14" ry="2"/><ellipse class="cls-22" cx="255.46" cy="172.2" rx="4.16" ry="5.66" transform="translate(55.22 406.33) rotate(-83.44)"/><ellipse id="v_øje-2" data-name="v øje" class="cls-27" cx="231.13" cy="196.37" rx="10.74" ry="6.03" transform="translate(-32.36 46.19) rotate(-10.67)"/><ellipse id="v_øje-3" data-name="v øje" class="cls-27" cx="347.59" cy="193.56" rx="9.9" ry="6.32" transform="translate(-29.68 67.25) rotate(-10.6)"/><path class="cls-28" d="M124.39,103.76c-4.61,1.34-10,.63-14.06,3-5.1,3-5.8,9.22-6,14.61-.46,14-.89,28,.21,42,.32,4.09,1.24,11.1,2.94,14.9s4.36,4.41,8.64,5.94c2.95,1,9.22.15,9.22.15"/><path class="cls-28" d="M456.69,103.58c4.62,1.33,10,.62,14.07,3,5.09,3,5.79,9.21,6,14.61.45,14,.88,28-.22,42-.32,4.08-1.24,11.09-2.94,14.89s-4.36,4.42-8.64,5.95c-2.94,1.05-9.22.15-9.22.15"/><path class="cls-29" d="M231.16,38.87c4.28,6.29-15.77,7.14-34.06,19.25S169.24,89,165,82.72,172,61.51,190.3,49.41,226.87,32.58,231.16,38.87Z"/><path class="cls-29" d="M220.73,56.64c1.46,2.3-6.31,2.75-13.74,7.35s-11.71,11.62-13.18,9.32,3.38-7.89,10.81-12.5S219.27,54.34,220.73,56.64Z"/></g></svg>